HIERARCHY
ROOT Hips
{
	OFFSET -0.001795 -0.223333 0.028219
	CHANNELS 6 Xposition Yposition Zposition Zrotation Yrotation Xrotation 
	JOINT LeftUpLeg
	{
		OFFSET 0.069520 -0.091406 -0.006815
		CHANNELS 3 Zrotation Yrotation Xrotation
		JOINT LeftLeg
		{
			OFFSET 0.034277 -0.375199 -0.004496
			CHANNELS 3 Zrotation Yrotation Xrotation
			JOINT LeftFoot
			{
				OFFSET -0.013596 -0.397961 -0.043693
				CHANNELS 3 Zrotation Yrotation Xrotation
				JOINT LeftToe
				{
					OFFSET 0.026358 -0.055791 0.119288
					CHANNELS 3 Zrotation Yrotation Xrotation
					End Site
					{
						OFFSET 0.000000 0.000000 0.000000
					}
				}
			}
		}
	}
	JOINT RightUpLeg
	{
		OFFSET -0.067670 -0.090522 -0.004320
		CHANNELS 3 Zrotation Yrotation Xrotation
		JOINT RightLeg
		{
			OFFSET -0.038290 -0.382569 -0.008850
			CHANNELS 3 Zrotation Yrotation Xrotation
			JOINT RightFoot
			{
				OFFSET 0.015774 -0.398415 -0.042312
				CHANNELS 3 Zrotation Yrotation Xrotation
				JOINT RightToe
				{
					OFFSET -0.025372 -0.048144 0.123348
					CHANNELS 3 Zrotation Yrotation Xrotation
					End Site
					{
						OFFSET 0.000000 0.000000 0.000000
					}
				}
			}
		}
	}
	JOINT Spine
	{
		OFFSET -0.002533 0.108963 -0.026696
		CHANNELS 3 Zrotation Yrotation Xrotation
		JOINT Spine1
		{
			OFFSET 0.005487 0.135180 0.001092
			CHANNELS 3 Zrotation Yrotation Xrotation
			JOINT Spine2
			{
				OFFSET 0.001457 0.052922 0.025425
				CHANNELS 3 Zrotation Yrotation Xrotation
				JOINT Neck
				{
					OFFSET -0.002778 0.213870 -0.042857
					CHANNELS 3 Zrotation Yrotation Xrotation
					JOINT Head
					{
						OFFSET 0.005152 0.064970 0.051349
						CHANNELS 3 Zrotation Yrotation Xrotation
						End Site
						{
							OFFSET 0.000000 0.000000 0.000000
						}
					}
				}
				JOINT LeftShoulder
				{
					OFFSET 0.078845 0.121749 -0.034090
					CHANNELS 3 Zrotation Yrotation Xrotation
					JOINT LeftArm
					{
						OFFSET 0.090977 0.030469 -0.008868
						CHANNELS 3 Zrotation Yrotation Xrotation
						JOINT LeftForeArm
						{
							OFFSET 0.259612 -0.012772 -0.027456
							CHANNELS 3 Zrotation Yrotation Xrotation
							JOINT LeftHand
							{
								OFFSET 0.249234 0.008986 -0.001171
								CHANNELS 3 Zrotation Yrotation Xrotation
								End Site
								{
									OFFSET 0.000000 0.000000 0.000000
								}
							}
						}
					}
				}
				JOINT RightShoulder
				{
					OFFSET -0.081759 0.118833 -0.038615
					CHANNELS 3 Zrotation Yrotation Xrotation
					JOINT RightArm
					{
						OFFSET -0.096012 0.032551 -0.009143
						CHANNELS 3 Zrotation Yrotation Xrotation
						JOINT RightForeArm
						{
							OFFSET -0.253742 -0.013329 -0.021401
							CHANNELS 3 Zrotation Yrotation Xrotation
							JOINT RightHand
							{
								OFFSET -0.255298 0.007772 -0.005559
								CHANNELS 3 Zrotation Yrotation Xrotation
								End Site
								{
									OFFSET 0.000000 0.000000 0.000000
								}
							}
						}
					}
				}
			}
		}
	}
}
MOTION
Frames: 10
Frame Time: 0.050000
0.000000 0.949456 0.000000 -0.047268 -5.569732 6.702665 2.741561 -0.285841 -3.408288 -1.198226 0.240750 -4.199104 -1.478798 -1.024231 5.130475 0.000000 0.000000 0.000000 -1.692559 0.493512 -4.918894 -0.433772 -0.092621 -3.099293 1.553098 -3.744423 14.217231 0.000000 0.000000 0.000000 5.940126 0.177182 -3.565403 -3.029015 1.308030 -6.159638 -3.411904 5.846788 4.034218 5.270529 -2.167849 -12.655851 0.000000 0.000000 0.000000 -18.488374 0.978868 -3.106890 -53.692012 -6.420134 -3.353754 -9.643170 -18.551038 2.135161 0.000000 0.000000 0.000000 17.722422 -8.330101 -5.361899 59.366085 2.535267 -4.367622 14.775417 26.528523 4.376966 0.000000 0.000000 0.000000 
-0.000093 0.948588 0.000725 -0.348291 -6.087779 7.575001 3.101368 -0.283018 -3.374618 -1.340562 0.291595 -5.670840 -1.284175 -0.595632 5.370517 0.000000 0.000000 0.000000 -1.698242 0.584849 -5.917398 0.059971 -0.120947 -3.007284 1.752466 -3.415681 14.112727 0.000000 0.000000 0.000000 6.920464 0.232995 -4.171796 -3.581689 1.526128 -6.019247 -3.889909 6.464519 3.368031 4.921894 -1.721095 -13.865873 0.000000 0.000000 0.000000 -19.200569 1.430603 -3.583928 -52.568001 -6.802658 -3.009623 -10.176638 -17.353201 2.054836 0.000000 0.000000 0.000000 17.356830 -9.612869 -5.920338 60.610744 1.010638 -5.109115 15.205526 26.569204 4.504505 0.000000 0.000000 0.000000 
-0.000239 0.948287 0.001208 0.129391 -5.575148 7.277622 2.907540 -0.308914 -3.736871 -1.810669 0.300025 -4.622929 -1.477765 -1.043709 5.083269 0.000000 0.000000 0.000000 -1.910166 0.589222 -5.989070 -0.397439 -0.057361 -2.186684 1.348471 -3.862748 13.580993 0.000000 0.000000 0.000000 6.731504 0.214594 -3.987277 -3.719038 1.576208 -6.614788 -4.013586 5.976129 3.830997 4.165035 -1.377829 -13.065249 0.000000 0.000000 0.000000 -18.826129 0.890588 -3.170046 -52.798395 -6.359128 -3.286086 -9.351579 -16.482570 1.846381 0.000000 0.000000 0.000000 18.288923 -8.700880 -5.605527 60.010429 0.640112 -5.345505 13.172924 26.282031 3.983494 0.000000 0.000000 0.000000 
-0.000491 0.948089 0.001702 0.083882 -5.098787 7.712488 3.406262 -0.312440 -3.824499 -2.484010 0.361939 -5.359494 -1.761328 -1.442783 5.380234 0.000000 0.000000 0.000000 -1.974401 0.617699 -6.306499 -0.104592 -0.082903 -2.292910 1.117821 -4.233859 13.644900 0.000000 0.000000 0.000000 6.730803 0.248909 -4.430106 -3.582108 1.541500 -5.956697 -4.108565 5.763988 2.819967 4.051128 -1.350928 -12.544737 0.000000 0.000000 0.000000 -18.944081 1.759827 -3.706708 -53.274220 -7.042502 -2.907254 -8.308093 -15.071156 1.540682 0.000000 0.000000 0.000000 17.634577 -9.355311 -5.852967 60.360356 0.437917 -5.333036 13.011234 25.137004 3.740846 0.000000 0.000000 0.000000 
-0.000790 0.948415 0.002135 0.172960 -4.836620 7.633860 3.121061 -0.322471 -3.905141 -2.074859 0.326140 -5.091512 -1.861512 -1.625059 5.361479 0.000000 0.000000 0.000000 -2.067279 0.613434 -6.269861 -0.036495 -0.080441 -2.102389 0.992022 -4.433753 13.672569 0.000000 0.000000 0.000000 6.630640 0.245776 -4.409862 -3.444244 1.491386 -5.834669 -4.207692 5.818506 2.968931 3.727660 -1.130991 -12.500576 0.000000 0.000000 0.000000 -18.695877 1.524857 -3.591529 -53.455735 -6.949085 -2.970531 -7.981864 -14.646489 1.451470 0.000000 0.000000 0.000000 17.416124 -9.357358 -5.770798 60.689497 0.170529 -5.497983 12.256866 24.488082 3.492071 0.000000 0.000000 0.000000 
-0.001088 0.948704 0.002509 0.306965 -4.382282 7.778999 3.192017 -0.322824 -3.870386 -2.342400 0.350591 -5.524777 -2.147871 -2.005977 5.690449 0.000000 0.000000 0.000000 -2.270438 0.600389 -6.123000 0.168521 -0.111351 -2.517960 0.814524 -4.759763 13.875490 0.000000 0.000000 0.000000 6.410582 0.255034 -4.586747 -3.247079 1.414641 -5.920311 -4.326573 5.772640 3.017403 3.756209 -1.151402 -12.338243 0.000000 0.000000 0.000000 -19.005465 1.799213 -3.844273 -53.215358 -7.057249 -2.893890 -7.441170 -14.092541 1.326545 0.000000 0.000000 0.000000 17.337039 -9.333979 -5.700631 60.812941 -0.074450 -5.625561 11.575922 23.875705 3.268770 0.000000 0.000000 0.000000 
-0.001237 0.948658 0.002709 0.276672 -3.985442 7.802048 3.126797 -0.329478 -3.929317 -2.080977 0.330642 -5.527767 -2.304711 -2.292016 5.658108 0.000000 0.000000 0.000000 -2.032776 0.597174 -6.089144 -0.112666 -0.090272 -2.495042 0.619280 -5.051617 13.860003 0.000000 0.000000 0.000000 6.385294 0.260743 -4.678407 -3.248307 1.422488 -5.814692 -4.385955 5.458533 3.148924 3.927808 -1.218139 -12.725597 0.000000 0.000000 0.000000 -18.968566 1.954954 -3.894777 -53.417304 -6.858320 -3.011303 -6.979923 -13.553422 1.225385 0.000000 0.000000 0.000000 17.023777 -9.345062 -5.673034 61.049565 -0.204269 -5.715066 11.154725 23.354515 3.100833 0.000000 0.000000 0.000000 
-0.001284 0.948633 0.002765 0.163766 -3.666766 7.923457 3.215304 -0.346163 -4.177970 -1.951524 0.317249 -5.376202 -2.406402 -2.499064 5.581307 0.000000 0.000000 0.000000 -1.766289 0.598790 -6.100053 -0.309927 -0.080871 -2.617912 0.485652 -5.277260 13.942243 0.000000 0.000000 0.000000 6.387194 0.278891 -4.904305 -3.136076 1.383439 -5.594320 -4.382440 5.364958 3.033858 4.344716 -1.560001 -12.123300 0.000000 0.000000 0.000000 -19.099976 2.117799 -4.027979 -53.243137 -6.633334 -3.081398 -6.816698 -13.315271 1.182865 0.000000 0.000000 0.000000 16.809380 -9.485197 -5.701325 61.038964 -0.033779 -5.601350 10.923116 22.642903 2.950014 0.000000 0.000000 0.000000 
-0.001275 0.948607 0.002697 0.069463 -3.520127 7.969456 3.231157 -0.355888 -4.322815 -1.768916 0.301252 -5.238705 -2.434978 -2.582630 5.494869 0.000000 0.000000 0.000000 -1.610026 0.596837 -6.072265 -0.379795 -0.080122 -2.722269 0.434011 -5.371371 14.004550 0.000000 0.000000 0.000000 6.345889 0.282834 -4.971359 -3.057450 1.350894 -5.755972 -4.281133 5.242299 3.251273 4.691055 -1.796366 -12.110072 0.000000 0.000000 0.000000 -19.020024 2.369054 -4.116765 -53.488632 -6.693373 -3.102334 -6.569709 -12.897013 1.122150 0.000000 0.000000 0.000000 16.785132 -9.528038 -5.731291 60.875094 0.229897 -5.477745 10.742298 22.083457 2.830310 0.000000 0.000000 0.000000 
-0.001242 0.948658 0.002585 -0.030796 -3.598526 7.968649 3.243116 -0.352540 -4.278891 -1.613947 0.292142 -5.293600 -2.389441 -2.507007 5.480419 0.000000 0.000000 0.000000 -1.475157 0.607348 -6.184146 -0.441407 -0.068098 -2.541693 0.471970 -5.316268 14.003823 0.000000 0.000000 0.000000 6.363208 0.291569 -5.044309 -3.024262 1.335036 -5.825724 -4.156507 5.294063 3.337441 5.317454 -2.248954 -11.826996 0.000000 0.000000 0.000000 -18.846374 2.633877 -4.214187 -53.738580 -6.672808 -3.144330 -6.436128 -12.537942 1.076910 0.000000 0.000000 0.000000 16.663343 -9.498826 -5.698774 60.812666 0.739552 -5.219331 10.296111 21.170988 2.617313 0.000000 0.000000 0.000000 
